<?xml version="1.0" encoding="UTF-8" standalone="no"?>
<!DOCTYPE svg PUBLIC "-//W3C//DTD SVG 1.1//EN" "http://www.w3.org/Graphics/SVG/1.1/DTD/svg11.dtd">
<svg width="100%" height="100%" viewBox="0 0 1080 1080" version="1.1" xmlns="http://www.w3.org/2000/svg" xmlns:xlink="http://www.w3.org/1999/xlink" xml:space="preserve" xmlns:serif="http://www.serif.com/" style="fill-rule:evenodd;clip-rule:evenodd;stroke-linejoin:round;stroke-miterlimit:2;">
    <g transform="matrix(1.659345,0,0,1.543947,-299.488023,-387.547682)">
        <g transform="matrix(1.161204,0,0,1.161204,-119.882841,-50.215478)">
            <path d="M656.318,714.917C653.24,713.628 650.149,714.636 647.259,715.918C640.408,718.966 639.522,722.747 640.308,728.253L640.354,728.518C642.18,737.666 642.322,744.299 642.322,746.115C642.322,762.632 632.88,773.729 618.829,773.729C599.859,773.729 574.948,755.08 542.657,716.698C532.707,704.976 523.038,692.65 513.687,680.729C501.887,665.687 490.694,651.419 479.198,638.557C498.267,610.833 516.504,567.501 536.386,502.762L543.601,479.062C566.93,402.478 577.823,383.804 626.899,336.277C627.528,335.648 628.079,335.118 628.559,334.653C632.542,330.812 633.474,329.236 633.474,322.539C633.474,312.406 623.935,311.502 596.673,311.502C488.739,311.502 397.553,376.733 397.553,453.943C397.553,479.788 405.932,513.482 429.61,530.644C430.703,531.371 433.604,533.294 437.122,532.359C439.516,531.721 441.432,529.993 442.737,527.374C446.878,519.784 445.329,515.927 442.788,511.485C434.945,496.323 430.447,476.477 430.447,457.031C430.447,397.956 494.631,348.553 581.066,339.924C553.918,362.057 531.542,394.918 507.524,474.171L500.306,497.893C484.656,550.057 471.348,588.233 454.514,614.615C436.001,598.932 417.14,590.751 398.285,590.28C359.339,590.28 334.173,609.378 334.173,638.931C334.173,646.891 335.907,658.481 344.172,668.494C354.343,680.819 371.336,687.071 394.677,687.071C420.253,687.071 440.746,679.395 458.738,662.982C468.266,674.268 477.689,686.897 486.832,699.153C493.318,707.846 500.026,716.836 506.798,725.399C539.401,767.091 578.269,809.712 619.347,809.712C647.537,809.712 667.998,786.432 667.998,754.358C667.998,743.252 665.544,730.797 661.507,721.226C660.653,718.942 659.29,716.159 656.32,714.915L656.318,714.917ZM434.755,638.519C422.025,649.395 408.191,654.695 392.613,654.695C381.191,654.695 367.577,651.96 367.577,638.933C367.577,628.098 378.284,621.629 396.219,621.629C408.333,621.629 420.979,627.163 434.756,638.519L434.755,638.519Z" style="fill:rgb(142,0,43);fill-rule:nonzero;"/>
        </g>
        <g transform="matrix(1.161204,0,0,1.161204,-119.882841,-50.215478)">
            <path d="M672.835,509.267C664.09,512.328 665.194,519.719 665.745,521.93L666.941,525.578C667.797,529.214 669.809,531.15 671.379,532.142C672.98,533.159 675.675,534.167 679.268,533.27C715.984,524.975 743.67,491.739 743.67,455.96C743.67,426.476 724.155,396.727 680.558,396.727C627.984,396.727 586.8,438.934 586.8,492.816C586.8,529.407 606.316,548.334 623.533,565.031C638.171,579.226 650.81,591.486 650.81,612.697C650.81,628.595 643.267,655.498 614.993,655.498C593.618,655.498 590.426,641.078 590.426,632.483C590.426,617.299 596.413,609.004 615.691,590.108C620.323,585.471 620.595,581.39 616.583,576.494L614.222,573.345C610.716,568.964 605.472,568.326 600.819,571.693C581.822,584.246 559.255,605.561 559.255,635.974C559.255,669.738 588.148,685.118 614.993,685.118C658.464,685.118 681.208,648.489 681.208,612.309C681.208,579.006 662.778,560.935 646.519,544.993C631.199,529.97 617.969,516.997 617.969,493.205C617.969,456.342 645.177,426.353 678.619,426.353C699.347,426.353 711.721,438.438 711.721,458.68C711.721,480.242 697.189,499.137 672.835,509.267Z" style="fill:rgb(142,0,43);fill-rule:nonzero;"/>
        </g>
        <g transform="matrix(1.161204,0,0,1.161204,-119.882841,-50.215478)">
            <path d="M510.428,638.387C510.428,646.994 517.405,653.971 526.012,653.971C534.619,653.971 541.596,646.994 541.596,638.387C541.596,629.78 534.619,622.803 526.012,622.803C517.405,622.803 510.428,629.78 510.428,638.387Z" style="fill:rgb(142,0,43);fill-rule:nonzero;"/>
        </g>
    </g>
</svg>
